<svg xmlns="http://www.w3.org/2000/svg" xmlns:xlink="http://www.w3.org/1999/xlink"><defs>
<clipPath id="clip0_1_877">
<rect width="25" height="25" fill="white"/>
</clipPath>
</defs><symbol id="icon-bin" viewBox="0 0 20 20">
<path fill-rule="evenodd" clip-rule="evenodd" d="M15 4H4L5.26923 16H13.7308L15 4ZM13.8887 5H5.11135L6.16904 15H12.831L13.8887 5Z" fill="currentColor"/>
<rect x="4" y="3" width="11" height="2" fill="currentColor"/>
</symbol><symbol id="icon-close" viewBox="0 0 25 25">
<g clip-path="url(#clip0_1_877)">
<rect width="1.06064" height="11.6671" transform="matrix(0.707115 0.707099 -0.707115 0.707099 16.25 8)" fill="currentColor"/>
<rect width="1.06064" height="11.6671" transform="matrix(-0.707114 0.707099 -0.707114 -0.707099 16.9999 16.25)" fill="currentColor"/>
</g>

</symbol><symbol id="icon-pen" viewBox="0 0 20 20">
<path d="M12.8701 3.60447C13.0429 3.41283 13.2481 3.26081 13.4739 3.1571C13.6997 3.05338 13.9417 3 14.1861 3C14.4306 3 14.6726 3.05338 14.8984 3.1571C15.1242 3.26081 15.3293 3.41283 15.5022 3.60447C15.675 3.79611 15.8121 4.02362 15.9056 4.27401C15.9991 4.5244 16.0473 4.79277 16.0473 5.06379C16.0473 5.33481 15.9991 5.60317 15.9056 5.85356C15.8121 6.10395 15.675 6.33146 15.5022 6.5231L6.61905 16.3735L3 17.468L3.98701 13.4549L12.8701 3.60447Z" stroke="currentColor" stroke-linecap="round" stroke-linejoin="round" fill-opacity="0.0"/>
</symbol><symbol id="icon-save" viewBox="0 0 25 25">
<path fill-rule="evenodd" clip-rule="evenodd" d="M19 9.49323V19H6V6H15.1985L19 9.49323ZM15.5882 5L20 9.05405V20H5V5H15.5882Z" fill="currentColor"/>
<path fill-rule="evenodd" clip-rule="evenodd" d="M16 15H9V19H16V15ZM8 14V20H17V14H8Z" fill="currentColor"/>
</symbol></svg>